<svg width="60" height="86" viewBox="0 0 60 86" fill="none" xmlns="http://www.w3.org/2000/svg">
<path d="M29.9633 86L5.46043 79.0926L0 16.9013H60L54.5338 79.0833L29.9633 86Z" fill="#4353AD"/>
<path d="M49.8542 75.1237L54.5248 21.9866H29.9999V80.713L49.8542 75.1237Z" fill="#485FB5"/>
<path d="M29.9999 64.8619L29.967 64.8705L21.6017 62.5768L21.0669 56.4936H13.5266L14.5789 68.4699L29.9654 72.8074L29.9999 72.7977V64.8619ZM11.1651 29.6141L11.8479 37.2414H29.9999V29.6141H11.1651ZM12.5179 45.0521L13.191 52.6797H29.9999V45.0521H12.5179Z" fill="#EDEDED"/>
<path d="M35.9547 8.58307e-05H45.0524V3.35936H39.7595V4.03153H45.0524V11.7578H35.9547V8.23023H41.248V7.55858H35.9551V8.58307e-05H35.9547ZM25.0377 8.58307e-05H34.1351V3.35936H28.8422V4.03153H34.1351V11.7578H25.0379V8.23023H30.331V7.55858H25.0375V8.58307e-05H25.0377ZM14.1207 8.58307e-05H23.218V3.86323H17.9252V7.72689H23.2185V11.59H14.1207V8.58307e-05Z" fill="#100F0D"/>
<path d="M47.4341 45.0522L48.7899 29.6142H29.9741V37.2416H40.5583L39.8749 45.0522H29.9741V52.6798H39.2236L38.3511 62.5724L29.9738 64.8682V72.8037L45.3724 68.4701L45.4852 67.1816L47.2508 47.1004L47.4341 45.0522Z" fill="white"/>
</svg>
