<svg width="60" height="86" viewBox="0 0 60 86" fill="none" xmlns="http://www.w3.org/2000/svg">
<path d="M5.46028 79.0926L0 16.9009H60L54.5337 79.0828L29.9632 86L5.46028 79.0926Z" fill="#E53D20"/>
<path d="M30 80.7128L49.8542 75.1234L54.5254 21.986H30V80.7128Z" fill="#F15123"/>
<path d="M30 45.0521H20.0605L19.374 37.2413H30V29.6137H29.974H11.1649L11.3448 31.66L13.191 52.6794H30V45.0521Z" fill="#EDEDED"/>
<path d="M30 64.8615L29.967 64.8705L21.6017 62.5766L21.0667 56.4933H17.0018H13.5265L14.5789 68.4697L29.9654 72.8071L30 72.7974V64.8615Z" fill="#EDEDED"/>
<path d="M5.58234 -6.12167e-05H9.3996V3.82961H12.8913V-6.12167e-05H16.7088V11.5972H12.8915V7.71381H9.39976V11.5972H5.58261V-6.12167e-05H5.58234Z" fill="#100F0D"/>
<path d="M21.7285 3.84578H18.368V-6.12167e-05H28.9079V3.84578H25.5459V11.5972H21.7287V3.84578H21.7285Z" fill="#100F0D"/>
<path d="M30.5807 -6.12167e-05H34.561L37.0094 4.07483L39.4553 -6.12167e-05H43.4371V11.5972H39.6356V5.84893L37.0094 9.97244H36.9438L34.3157 5.84893V11.5972H30.5807V-6.12167e-05Z" fill="#100F0D"/>
<path d="M45.3369 -6.12167e-05H49.1552V7.76384H54.5232V11.5972H45.3369V-6.12167e-05Z" fill="#100F0D"/>
<path d="M29.974 45.0523V52.6796H39.2233L38.3515 62.572L29.974 64.8681V72.8036L45.3727 68.4699L45.4856 67.1813L47.2508 47.1004L47.434 45.0523H45.4099H29.974Z" fill="white"/>
<path d="M29.974 29.6138V37.2413H48.0934H48.1175L48.2682 35.5268L48.6104 31.66L48.79 29.6138H29.974" fill="white"/>
</svg>
